<svg width="50" height="50" viewBox="0 0 50 50" fill="none" xmlns="http://www.w3.org/2000/svg">
<path d="M43.9406 5.59995L40.5859 8.56558L38.55 8.59683L34.2843 13.0578C37.0343 15.9796 38.7312 19.9062 38.7312 24.2359C38.7312 33.2562 31.4172 40.5718 22.3953 40.5718C13.3734 40.5718 6.06091 33.2562 6.06091 24.2359C6.06091 15.214 13.375 7.89995 22.3953 7.89995C26.5281 7.89995 30.2906 9.44526 33.1672 11.975L37.2843 7.85776L37.2875 6.0437L40.4468 2.39526L40.4437 5.6437L43.9406 5.59995ZM32.6328 14.7093L28.4797 18.864C29.8859 20.3906 30.7656 22.4109 30.7656 24.65C30.7656 29.3765 26.9359 33.2062 22.2094 33.2062C17.4828 33.2062 13.6515 29.3765 13.6515 24.65C13.6515 19.925 17.4828 16.0921 22.2094 16.0921C24.1328 16.0921 25.889 16.75 27.3203 17.8218L31.5172 13.625C29.0656 11.5156 25.8844 10.2328 22.3953 10.2328C14.6625 10.2328 8.39373 16.5031 8.39373 24.2359C8.39373 31.9687 14.6625 38.2359 22.3953 38.2359C30.1281 38.2359 36.3969 31.9671 36.3969 24.2359C36.3953 20.5515 34.9609 17.2093 32.6328 14.7093ZM22.1437 27.1124C20.8562 27.1124 19.8109 26.0687 19.8109 24.7796C19.8109 23.4906 20.8562 22.4453 22.1437 22.4453C22.3062 22.4453 22.45 22.5062 22.6047 22.539L26.2187 18.925C25.0812 18.1265 23.7047 17.65 22.2094 17.65C18.3422 17.65 15.2094 20.7859 15.2094 24.6515C15.2094 28.5171 18.3437 31.6515 22.2094 31.6515C26.075 31.6515 29.2094 28.5171 29.2094 24.6515C29.2094 22.8421 28.5047 21.2093 27.3765 19.9656L23.9625 23.3812C24.264 23.775 24.4765 24.2468 24.4765 24.7812C24.4781 26.0687 23.4328 27.1124 22.1437 27.1124ZM15.3984 41.7937C15.8625 42.0281 16.339 42.239 16.8281 42.4281L14.0656 47.2124C13.85 47.5843 13.375 47.7093 13.0015 47.4968C12.6312 47.2828 12.5031 46.8078 12.7172 46.4343L15.3984 41.7937ZM23.2125 43.0171V45.1968C23.2125 45.6265 22.8625 45.9749 22.4344 45.9749C22.0047 45.9749 21.6562 45.6265 21.6562 45.1968V43.0171C21.9156 43.0296 22.1719 43.0562 22.4344 43.0562C22.6968 43.0562 22.9531 43.0296 23.2125 43.0171ZM32.7359 46.4359C32.95 46.8078 32.8234 47.2843 32.45 47.4984C32.0765 47.7125 31.6031 47.5874 31.3859 47.214L28.625 42.4296C29.1125 42.2406 29.5906 42.0296 30.0547 41.7953L32.7359 46.4359Z" fill="#EA762B"/>
</svg>
