<svg width="44" height="44" viewBox="0 0 44 44" fill="none" xmlns="http://www.w3.org/2000/svg">
<path d="M41.5174 0.0430908L37.8573 39.6873L21.9998 43.957L6.14197 39.6873L2.48267 0.0430908H41.5174ZM34.1421 8.10411H21.9855H9.6135L10.2052 12.8915H21.9855H22.6472L21.9855 13.1669L10.6357 17.894L11.0121 22.5736L21.9855 22.6092L27.8669 22.6278L27.4904 28.8674L21.9854 30.4173V30.4124L21.9403 30.4249L16.6239 29.0828L16.3012 25.2096H16.2836H11.3524H11.335L11.9805 32.6868L21.9856 35.6455V35.6402L22.0036 35.6455L31.9551 32.7407L33.246 17.894H21.9856H21.9578L21.9856 17.882L33.6585 12.8915L34.1421 8.10411Z" fill="#CF3465"/>
</svg>
