<svg width="44" height="35" viewBox="0 0 44 35" fill="none" xmlns="http://www.w3.org/2000/svg">
<path d="M43.8864 4.91674C43.688 3.91763 43.245 3.00334 42.6264 2.24804C42.4959 2.08347 42.3596 1.93609 42.2119 1.7887C41.1158 0.687156 39.5773 0 37.8966 0H6.10337C4.42269 0 2.88973 0.687156 1.78845 1.7887C1.64106 1.93609 1.50477 2.08347 1.37397 2.24804C0.754961 3.00326 0.311953 3.91763 0.119109 4.91674C0.039875 5.30234 0 5.70084 0 6.10371V28.4331C0 29.2897 0.181672 30.1132 0.505656 30.8568C0.80618 31.5666 1.24927 32.2089 1.78836 32.7475C1.925 32.8838 2.0607 33.0091 2.20877 33.1337C3.26459 34.0081 4.62748 34.5362 6.10337 34.5362H37.8966C39.373 34.5362 40.7419 34.0081 41.7916 33.1282C41.9392 33.0091 42.0756 32.8838 42.2119 32.7475C42.7507 32.2089 43.1937 31.5666 43.5004 30.8568V30.8513C43.8243 30.1077 43.9999 29.2897 43.9999 28.4332V6.10371C44 5.70084 43.9607 5.30234 43.8864 4.91674ZM3.99687 3.99687C4.54214 3.4522 5.27441 3.12245 6.10337 3.12245H37.8966C38.7256 3.12245 39.4643 3.4522 40.0031 3.99687C40.0996 4.09389 40.1904 4.202 40.2706 4.30942L23.6067 18.8324C23.1471 19.2352 22.5794 19.4342 22 19.4342C21.4265 19.4342 20.8591 19.2352 20.3934 18.8324L3.73588 4.30323C3.80961 4.19581 3.90045 4.09389 3.99687 3.99687ZM3.12245 28.4331V7.5344L15.1815 18.0544L3.12855 28.5633C3.12245 28.5234 3.12245 28.4786 3.12245 28.4331ZM37.8966 31.4132H6.10337C5.56359 31.4132 5.05854 31.2713 4.62748 31.022L17.3443 19.9396L18.5316 20.9724C19.5251 21.8357 20.7683 22.2729 22 22.2729C23.238 22.2729 24.4812 21.8357 25.4746 20.9724L26.6612 19.9396L39.3731 31.022C38.9415 31.2713 38.4364 31.4132 37.8966 31.4132ZM40.8775 28.4331C40.8775 28.4786 40.8775 28.5234 40.8717 28.5633L28.8188 18.0605L40.8775 7.53998V28.4331Z" fill="#FF96B1"/>
</svg>
