<svg width="46" height="46" viewBox="0 0 46 46" fill="none" xmlns="http://www.w3.org/2000/svg">
<path fill-rule="evenodd" clip-rule="evenodd" d="M23.0003 15.3333C18.7662 15.3333 15.3337 18.7657 15.3337 22.9999C15.3337 27.234 18.7662 30.6666 23.0003 30.6666C27.2346 30.6666 30.667 27.234 30.667 22.9999C30.667 18.7657 27.2346 15.3333 23.0003 15.3333ZM19.167 22.9999C19.167 20.8828 20.8834 19.1666 23.0003 19.1666C25.1175 19.1666 26.8337 20.8828 26.8337 22.9999C26.8337 25.1171 25.1175 26.8333 23.0003 26.8333C20.8834 26.8333 19.167 25.1171 19.167 22.9999Z" fill="#EA762B"/>
<path fill-rule="evenodd" clip-rule="evenodd" d="M21.6329 0.958252C18.9479 0.958252 16.5718 2.81253 16.0459 5.47401L15.8943 6.24101C15.5345 8.06215 13.5355 9.25855 11.5865 8.60217L10.8259 8.34599C8.28479 7.49018 5.44098 8.49014 4.06027 10.8086L2.69284 13.1048C1.29906 15.4453 1.82925 18.4093 3.90868 20.1521L4.51793 20.6627C5.99808 21.9034 5.99808 24.0964 4.51793 25.3371L3.90868 25.8477C1.82925 27.5905 1.29906 30.5545 2.69284 32.8949L4.06021 35.1911C5.44096 37.5097 8.28487 38.5096 10.826 37.6538L11.5864 37.3975C13.5354 36.7411 15.5345 37.9375 15.8943 39.7587L16.0459 40.5257C16.5718 43.1872 18.9479 45.0416 21.6329 45.0416H24.3678C27.0531 45.0416 29.4292 43.1872 29.9551 40.5255L30.1065 39.7589C30.4663 37.9377 32.4653 36.7411 34.4144 37.3975L35.1749 37.6538C37.7161 38.5096 40.56 37.5097 41.9408 35.1911L43.3081 32.8951C44.7019 30.5547 44.1716 27.5905 42.0922 25.8477L41.4829 25.3371C40.0026 24.0966 40.0026 21.9032 41.4829 20.6627L42.0922 20.1521C44.1716 18.4093 44.7019 15.4453 43.3081 13.1048L41.9408 10.8086C40.56 8.49014 37.7162 7.49016 35.1751 8.34593L34.4142 8.60219C32.4653 9.25855 30.4663 8.06207 30.1065 6.24091L29.9551 5.47423C29.4292 2.81265 27.0531 0.958252 24.3678 0.958252H21.6329ZM19.8065 6.21711C19.962 5.43049 20.6968 4.79159 21.6329 4.79159H24.3678C25.3041 4.79159 26.039 5.43053 26.1944 6.21716L26.3458 6.98385C27.1767 11.1896 31.6076 13.5923 35.6376 12.235L36.3985 11.9788C37.2783 11.6825 38.2173 12.048 38.6472 12.77L40.0145 15.0661C40.4314 15.7662 40.2899 16.6609 39.6298 17.2142L39.0207 17.7247C35.7124 20.4973 35.7124 25.5025 39.0207 28.2752L39.6298 28.7856C40.2899 29.3389 40.4314 30.2336 40.0145 30.9338L38.6472 33.2297C38.2173 33.9518 37.2783 34.3173 36.3985 34.0209L35.6378 33.7647C31.6076 32.4073 27.1767 34.81 26.3458 39.016L26.1944 39.7826C26.039 40.5692 25.3041 41.2083 24.3678 41.2083H21.6329C20.6968 41.2083 19.962 40.5694 19.8065 39.7826L19.6549 39.0156C18.8239 34.8098 14.3929 32.4073 10.3628 33.7649L9.60239 34.0209C8.72268 34.3173 7.78374 33.9518 7.35377 33.2297L5.98641 30.9336C5.56953 30.2336 5.71096 29.3389 6.37104 28.7856L6.98029 28.275C10.2884 25.5023 10.2884 20.4975 6.98029 17.7249L6.37104 17.2142C5.71096 16.661 5.56953 15.7662 5.98641 15.0662L7.35383 12.77C7.78378 12.048 8.7227 11.6825 9.60239 11.9788L10.363 12.235C14.3931 13.5923 18.8239 11.1898 19.6549 6.9841L19.8065 6.21711Z" fill="#EA762B"/>
</svg>
