<svg width="46" height="46" viewBox="0 0 46 46" fill="none" xmlns="http://www.w3.org/2000/svg">
<g clip-path="url(#clip0_25_36)">
<path d="M4.98337 20.2975L16.0617 9.20003L19.3009 12.4584C19.0912 13.2677 19.1519 14.1234 19.4738 14.895C19.7956 15.6667 20.3608 16.3119 21.0834 16.7325V27.3509C20.5012 27.687 20.0177 28.1703 19.6813 28.7523C19.3448 29.3342 19.1674 29.9945 19.1667 30.6667C19.1667 31.6834 19.5706 32.6584 20.2895 33.3773C21.0084 34.0962 21.9834 34.5 23 34.5C24.0167 34.5 24.9917 34.0962 25.7106 33.3773C26.4295 32.6584 26.8334 31.6834 26.8334 30.6667C26.8327 29.9945 26.6552 29.3342 26.3188 28.7523C25.9824 28.1703 25.4989 27.687 24.9167 27.3509V18.0359L28.8842 22.0417C28.7703 22.3476 28.7245 22.6746 28.75 23C28.75 23.7582 28.9749 24.4993 29.3961 25.1297C29.8173 25.7601 30.416 26.2514 31.1164 26.5416C31.8169 26.8317 32.5876 26.9076 33.3312 26.7597C34.0748 26.6118 34.7578 26.2467 35.2939 25.7106C35.83 25.1745 36.1951 24.4915 36.343 23.7479C36.491 23.0043 36.415 22.2335 36.1249 21.5331C35.8348 20.8326 35.3434 20.2339 34.7131 19.8127C34.0827 19.3915 33.3415 19.1667 32.5834 19.1667C32.258 19.1411 31.9309 19.1869 31.625 19.3009L26.6992 14.375C26.9289 13.4874 26.8328 12.5468 26.4284 11.724C26.024 10.9011 25.3381 10.2505 24.495 9.89002C23.7153 9.57797 22.8575 9.51766 22.0417 9.71753L18.7834 6.47836L20.2975 4.98336C21.0158 4.2694 21.9873 3.86865 23 3.86865C24.0128 3.86865 24.9843 4.2694 25.7025 4.98336L41.0359 20.3167C41.7498 21.0349 42.1506 22.0065 42.1506 23.0192C42.1506 24.0319 41.7498 25.0035 41.0359 25.7217L25.7025 41.055C24.9843 41.769 24.0128 42.1697 23 42.1697C21.9873 42.1697 21.0158 41.769 20.2975 41.055L4.9642 25.7217C4.60905 25.3644 4.3278 24.9407 4.13653 24.4746C3.94526 24.0086 3.84773 23.5094 3.84951 23.0056C3.85129 22.5019 3.95235 22.0034 4.1469 21.5387C4.34146 21.0741 4.6257 20.6523 4.98337 20.2975Z" fill="#CF3465"/>
</g>
<defs>
<clipPath id="clip0_25_36">
<rect width="46" height="46" fill="white"/>
</clipPath>
</defs>
</svg>
