<svg width="44" height="44" viewBox="0 0 44 44" fill="none" xmlns="http://www.w3.org/2000/svg">
<path fill-rule="evenodd" clip-rule="evenodd" d="M22 33C28.0751 33 33 28.0751 33 22C33 15.9249 28.0751 11 22 11C15.9249 11 11 15.9249 11 22C11 28.0751 15.9249 33 22 33ZM22 29.3333C26.05 29.3333 29.3333 26.05 29.3333 22C29.3333 17.9499 26.05 14.6667 22 14.6667C17.9499 14.6667 14.6667 17.9499 14.6667 22C14.6667 26.05 17.9499 29.3333 22 29.3333Z" fill="#FF96B1"/>
<path d="M33 9.1665C31.9874 9.1665 31.1666 9.98732 31.1666 10.9998C31.1666 12.0124 31.9874 12.8332 33 12.8332C34.0125 12.8332 34.8333 12.0124 34.8333 10.9998C34.8333 9.98732 34.0125 9.1665 33 9.1665Z" fill="#FF96B1"/>
<path fill-rule="evenodd" clip-rule="evenodd" d="M3.0323 7.83961C1.83337 10.1926 1.83337 13.2729 1.83337 19.4335V24.5668C1.83337 30.7274 1.83337 33.8077 3.0323 36.1606C4.08691 38.2305 5.76969 39.9133 7.83948 40.9678C10.1925 42.1668 13.2728 42.1668 19.4334 42.1668H24.5667C30.7273 42.1668 33.8076 42.1668 36.1605 40.9678C38.2304 39.9133 39.9132 38.2305 40.9677 36.1606C42.1667 33.8077 42.1667 30.7274 42.1667 24.5668V19.4335C42.1667 13.2729 42.1667 10.1926 40.9677 7.83961C39.9132 5.76981 38.2304 4.08703 36.1605 3.03242C33.8076 1.8335 30.7273 1.8335 24.5667 1.8335H19.4334C13.2728 1.8335 10.1925 1.8335 7.83948 3.03242C5.76969 4.08703 4.08691 5.76981 3.0323 7.83961ZM24.5667 5.50016H19.4334C16.2926 5.50016 14.1575 5.50302 12.5072 5.63785C10.8996 5.76919 10.0776 6.00724 9.50411 6.29944C8.12426 7.00252 7.0024 8.12438 6.29932 9.50424C6.00712 10.0777 5.76906 10.8998 5.63772 12.5073C5.5029 14.1576 5.50004 16.2927 5.50004 19.4335V24.5668C5.50004 27.7077 5.5029 29.8426 5.63772 31.493C5.76906 33.1006 6.00712 33.9227 6.29932 34.4962C7.0024 35.8759 8.12426 36.9977 9.50411 37.7008C10.0776 37.9931 10.8996 38.2312 12.5072 38.3625C14.1575 38.4972 16.2926 38.5002 19.4334 38.5002H24.5667C27.7076 38.5002 29.8425 38.4972 31.4929 38.3625C33.1005 38.2312 33.9226 37.9931 34.496 37.7008C35.8758 36.9977 36.9976 35.8759 37.7007 34.4962C37.9929 33.9227 38.2311 33.1006 38.3624 31.493C38.4971 29.8426 38.5 27.7077 38.5 24.5668V19.4335C38.5 16.2927 38.4971 14.1576 38.3624 12.5073C38.2311 10.8998 37.9929 10.0777 37.7007 9.50424C36.9976 8.12438 35.8758 7.00252 34.496 6.29944C33.9226 6.00724 33.1005 5.76919 31.4929 5.63785C29.8425 5.50302 27.7076 5.50016 24.5667 5.50016Z" fill="#FF96B1"/>
</svg>
