<svg width="44" height="44" viewBox="0 0 44 44" fill="none" xmlns="http://www.w3.org/2000/svg">
<path d="M18.106 42.4889C25.5324 42.9646 36.9367 42.2262 37.2062 38.7117C37.2062 38.7117 36.6878 40.0427 31.0682 41.1015C27.9648 41.6611 24.3925 41.9801 20.7447 41.9801C17.7568 41.9801 14.8198 41.7656 11.9474 41.3517L12.276 41.3902C12.276 41.3889 13.2262 42.1754 18.106 42.4889ZM26.125 1.38049C26.125 1.38049 30.4109 5.66637 22.0619 12.2567C15.367 17.5436 20.5357 20.559 22.0605 24.0034C18.1528 20.4751 15.2859 17.3745 17.2082 14.4856C20.0324 10.2437 27.8548 8.18812 26.125 1.38049ZM30.7904 31.5947C38.5275 27.5742 34.9498 23.7091 32.4542 24.2316C32.1118 24.2962 31.8148 24.3787 31.5274 24.4819L31.5687 24.4695C31.7323 24.2399 31.9578 24.0625 32.2204 23.9621L32.23 23.9594C37.1704 22.2227 40.9695 29.0812 30.635 31.7982C30.6983 31.7419 30.7505 31.6745 30.7877 31.5989L30.7904 31.5947ZM17.347 24.079C17.347 24.079 9.85192 25.8596 14.6947 26.5045C15.9982 26.6117 17.5162 26.6722 19.0479 26.6722C21.0059 26.6722 22.9405 26.5719 24.8477 26.378L24.6084 26.3972C27.7118 26.136 30.8248 25.5777 30.8248 25.5777C30.0947 25.8967 29.4745 26.2336 28.8874 26.6172L28.9383 26.587C21.3277 28.589 6.6248 27.6581 10.8584 25.6107C12.7243 24.6441 14.9325 24.0776 17.2728 24.0776C17.2989 24.0776 17.325 24.0776 17.3512 24.0776L17.347 24.079ZM34.595 36.6121C34.595 36.6121 35.7624 37.5732 33.3122 38.3144C28.6523 39.7265 13.9164 40.1514 9.8258 38.3707C8.35455 37.73 11.1142 36.8417 11.9804 36.6561C12.3805 36.5544 12.8412 36.4952 13.3142 36.4952C13.3458 36.4952 13.376 36.4952 13.4077 36.4966H13.4035C11.7659 35.343 2.82567 38.7599 8.86192 39.7389C25.3234 42.4077 38.8644 38.5357 34.595 36.6121ZM23.9182 21.098C24.3499 21.6164 24.6125 22.2915 24.6125 23.0257C24.6125 24.0144 24.1368 24.893 23.4025 25.4444L23.3943 25.4499C23.3943 25.4499 28.4447 22.8415 26.125 19.5772C23.958 16.533 22.297 15.0205 31.2923 9.80374C31.2923 9.80237 17.1752 13.3279 23.9182 21.098ZM15.6008 28.7581C15.6008 28.7581 13.8339 30.0657 16.5317 30.3462C17.7128 30.4947 19.0782 30.5786 20.4642 30.5786C22.9749 30.5786 25.421 30.3009 27.7723 29.7742L27.5495 29.8155C28.0225 30.2582 28.5877 30.6102 29.2119 30.8385L29.2463 30.8495C19.4879 33.704 8.6158 31.0722 15.5994 28.7567L15.6008 28.7581ZM16.5894 33.2722C16.5894 33.2722 15.0137 34.1894 17.7114 34.4987C18.7 34.6459 19.8399 34.7297 21.0004 34.7297C22.8622 34.7297 24.673 34.5139 26.4097 34.1041L26.2502 34.1357C26.8923 34.5276 27.6389 34.9016 28.4185 35.211L28.5203 35.2467C20.4463 38.7062 10.2507 35.0446 16.5908 33.2722H16.5894Z" fill="#CF3465"/>
</svg>
