<svg width="38" height="38" viewBox="0 0 38 38" fill="none" xmlns="http://www.w3.org/2000/svg">
<path d="M16.818 15.7195C26.4961 15.7195 33.25 13.2703 33.25 10.2422V6.96172C33.25 3.93359 26.4961 1.48438 16.818 1.48438C7.13984 1.48438 1.48438 3.93359 1.48438 6.96172V10.2422C1.48438 13.2703 7.13984 15.7195 16.818 15.7195Z" fill="#CF3465"/>
<path d="M14.8289 28.8117C8.17891 28.5594 4.30469 27.0453 2.25625 25.0117C1.73672 25.5312 1.48438 26.0805 1.48438 26.6594V31.0383C1.48438 34.0664 7.13985 36.5156 16.818 36.5156C17.7828 36.5156 18.7328 36.4859 19.6531 36.4414C17.1594 34.6602 15.393 31.9586 14.8289 28.8117Z" fill="#CF3465"/>
<path d="M14.6211 26.6148C14.6359 23.7203 15.6602 21.0633 17.382 19C17.1742 19 16.9812 19 16.7586 19C8.90625 19 4.49766 17.382 2.25625 15.1703C1.73672 15.6898 1.48438 16.239 1.48438 16.8179V21.1969C1.48438 23.9726 6.29375 26.2734 14.6211 26.6148Z" fill="#CF3465"/>
<path d="M17.0259 24.6258C17.961 23.7946 19.4157 22.9633 21.4938 22.9633C24.4329 22.9633 25.8431 24.5219 27.0751 25.9172C28.2181 27.1938 29.2126 28.2922 31.3056 28.2922C34.1259 28.2922 36.1298 26.5852 36.5157 26.2438C36.2931 21.0039 31.9735 16.818 26.6743 16.818C21.9243 16.818 17.9759 20.1578 17.0259 24.6258Z" fill="#CF3465"/>
<path d="M26.0507 26.8375C24.8484 25.5016 23.8093 24.3438 21.5085 24.3438C18.2281 24.3438 16.9218 26.9414 16.907 26.9563L16.8328 26.9266C16.9812 32.2406 21.3304 36.5156 26.689 36.5156C31.6617 36.5156 35.7734 32.8344 36.4414 28.0547C35.3578 28.782 33.5765 29.6727 31.3203 29.6727C28.589 29.6727 27.2382 28.1734 26.0507 26.8375Z" fill="#CF3465"/>
</svg>
