<svg width="44" height="44" viewBox="0 0 44 44" fill="none" xmlns="http://www.w3.org/2000/svg">
<g clip-path="url(#clip0_21_27)">
<path d="M21.791 17.9098C24.8105 17.9098 27.1993 18.7092 28.963 20.306C30.7248 21.9047 31.6067 24.0827 31.6067 26.8437C31.6067 30.041 30.602 32.5398 28.5945 34.342C26.5998 36.1332 23.7582 37.0278 20.0695 37.0278C16.7218 37.0278 14.0928 36.4888 12.1807 35.409V31.0457C13.3761 31.7079 14.6594 32.1974 15.9922 32.4995C17.4258 32.8405 18.7587 33.0128 19.9888 33.0128C22.1595 33.0128 23.8132 32.527 24.9462 31.5572C26.081 30.5855 26.6475 29.1665 26.6475 27.2947C26.6475 23.716 24.365 21.9248 19.8037 21.9248C19.162 21.9248 18.3682 21.9945 17.4258 22.1302C16.4835 22.253 15.6567 22.396 14.9472 22.561L12.7948 21.2905L13.9425 6.6605H29.5167V10.9413H18.1848L17.5065 18.359C17.9868 18.2783 18.5662 18.183 19.2482 18.073C19.9448 17.963 20.7937 17.908 21.791 17.908V17.9098ZM22 0C9.8505 0 0 9.8505 0 22C0.000734267 26.0905 1.14204 30.0997 3.2957 33.5773C5.44935 37.0549 8.53004 39.863 12.1917 41.6863V34.9488H12.4447C12.463 34.9562 21.3547 39.4698 27.1498 34.9488C32.9487 30.4242 30.1198 24.343 29.1298 22.9277C28.1398 21.5142 23.0487 19.1088 18.6652 19.5342C14.2817 19.9577 14.2817 20.0988 14.2817 20.0988L15.4128 7.0895L29.5057 6.95383V1.364C27.1017 0.475512 24.561 0.0139038 21.9982 0L22 0ZM29.5057 1.364V6.95383L15.4128 7.0895L14.2817 20.0988C14.2817 20.0988 14.2817 19.9577 18.6652 19.5342C23.0505 19.1088 28.1417 21.5142 29.1298 22.9277C30.1198 24.343 32.9487 30.4242 27.1498 34.9488C21.3565 39.4717 12.4575 34.9562 12.4447 34.9488H12.1917V41.6863C15.2386 43.2063 18.595 43.9984 22 44C34.1513 44 44 34.1495 44 22C43.9931 17.572 42.651 13.249 40.149 9.59564C37.6469 5.9423 34.1012 3.12846 29.975 1.52167C29.82 1.46665 29.6623 1.41408 29.5057 1.364Z" fill="#CF3465"/>
</g>
<defs>
<clipPath id="clip0_21_27">
<rect width="44" height="44" fill="white"/>
</clipPath>
</defs>
</svg>
