<svg width="44" height="45" viewBox="0 0 44 45" fill="none" xmlns="http://www.w3.org/2000/svg">
<path d="M21.875 9.84375C15.7031 9.84375 10.7812 14.8437 10.7031 21.0156C10.7031 25.3906 13.2031 29.1406 16.9531 31.0156V34.7656V36.3281V40.4687H18.2031L19.6094 44.6094H24.2187L24.375 44.0625L25.5469 40.4687H26.7969V39.6875V36.3281V34.7656V31.0156C30.4687 29.2188 32.9687 25.3906 33.0469 21.0156C32.9687 14.8437 28.0469 9.84375 21.875 9.84375ZM18.5156 38.8281V36.25H25.2344V38.8281H18.5156ZM23.0469 42.9688H20.7031L19.8437 40.3906H23.9062L23.0469 42.9688ZM25.7031 29.7656L25.2344 30V34.7656H22.6562V27.1875C23.4375 26.875 24.0625 26.0938 24.0625 25.1562C24.0625 23.9844 23.125 22.9688 21.875 22.9688C20.7031 22.9688 19.6875 23.9062 19.6875 25.1562C19.6875 26.0938 20.2344 26.875 21.0937 27.1875V34.7656H18.5156V30L18.0469 29.7656C14.6875 28.2812 12.2656 24.9219 12.3437 21.0156C12.3437 18.3594 13.4375 16.0156 15.1562 14.2188C16.875 12.5 19.2969 11.4062 21.9531 11.4062C24.6094 11.4062 26.9531 12.5 28.75 14.2188C30.4687 15.9375 31.5625 18.3594 31.5625 21.0156C31.4844 24.9219 29.0625 28.2812 25.7031 29.7656ZM21.875 25.7031C21.5625 25.7031 21.25 25.4687 21.25 25.0781C21.25 24.7656 21.4844 24.4531 21.875 24.4531C22.1875 24.4531 22.5 24.6875 22.5 25.0781C22.5 25.4687 22.1875 25.7031 21.875 25.7031Z" fill="#EA762B"/>
<path d="M22.6562 0H21.0938V5.46875H22.6562V0Z" fill="#EA762B"/>
<path d="M43.75 21.0938H38.2812V22.6562H43.75V21.0938Z" fill="#EA762B"/>
<path d="M5.46875 21.0938H0V22.6562H5.46875V21.0938Z" fill="#EA762B"/>
<path d="M36.7914 5.88183L32.9244 9.74878L34.0293 10.8536L37.8962 6.98667L36.7914 5.88183Z" fill="#EA762B"/>
<path d="M6.98204 5.86439L5.8772 6.96924L9.74415 10.8362L10.849 9.73135L6.98204 5.86439Z" fill="#EA762B"/>
</svg>
