<svg width="65" height="64" viewBox="0 0 65 64" fill="none" xmlns="http://www.w3.org/2000/svg">
<path d="M11.1719 16.438V47.564C11.1719 50.502 13.52 52.814 16.5039 52.814H48.1163C49.5767 52.814 50.9722 52.126 51.8619 51.252C52.8145 50.314 53.4483 49.126 53.4483 47.564V16.438C53.4483 13.5 51.1002 11.188 48.1163 11.188H16.5039C14.9175 11.188 13.7109 11.814 12.7583 12.75C11.8686 13.626 11.1719 15 11.1719 16.438ZM16.8858 20.562C16.8858 18.562 18.5372 16.812 20.5684 16.812C22.6627 16.812 24.377 18.562 24.377 20.562C24.377 22.624 22.6627 24.25 20.5684 24.25C18.5372 24.25 16.8858 22.624 16.8858 20.562ZM27.105 46.25V27.188C27.105 26.75 27.5498 26.376 27.8667 26.376H33.2617C34.0234 26.376 34.0234 27.252 34.0234 27.814C35.5469 26.314 37.5152 25.938 39.5464 25.938C44.4986 25.938 47.6714 28.25 47.6714 33.376V46.252C47.6714 46.69 47.2895 47.064 46.9097 47.064H41.3238C40.8789 47.064 40.562 46.626 40.562 46.252V34.626C40.562 32.688 39.9913 31.626 37.7691 31.626C34.9761 31.626 34.2773 33.438 34.2773 35.876V46.252C34.2773 46.69 33.8325 47.064 33.3877 47.064H27.8647C27.5478 47.064 27.103 46.626 27.103 46.252L27.105 46.25ZM17.0117 46.25V27.188C17.0117 26.75 17.4566 26.376 17.7734 26.376H23.2964C23.8042 26.376 24.1211 26.688 24.1211 27.188V46.25C24.1211 46.688 23.7392 47.062 23.2964 47.062H17.7734C17.3916 47.062 17.0117 46.624 17.0117 46.25Z" fill="#FF96B1"/>
</svg>
