<svg width="44" height="44" viewBox="0 0 44 44" fill="none" xmlns="http://www.w3.org/2000/svg">
<g clip-path="url(#clip0_21_25)">
<path d="M7.76508 0.0021493C7.19363 -0.0215007 6.54719 0.131583 6.24799 0.837966C5.95741 1.52382 5.72879 3.01487 5.62429 5.01027L7.86793 6.09707C7.83089 4.66853 7.88369 3.3236 8.02743 2.10278C7.98196 2.50465 7.88699 3.76635 8.01734 6.04317C8.05199 6.6698 8.10681 7.37545 8.17794 8.15517C8.18198 8.19917 8.18161 8.23822 8.19169 8.278C8.25641 8.95835 8.34056 9.6904 8.44653 10.4916C8.53691 11.1814 8.63829 11.9111 8.76278 12.6989C8.86434 13.3732 8.98736 14.0792 9.11533 14.827L9.09773 14.8435C9.12193 14.8635 9.12578 14.8804 9.12413 14.8912C9.14136 14.9918 9.15951 15.0826 9.17674 15.1834C9.23468 15.4812 9.28638 15.7829 9.34871 16.0869C9.41233 16.4184 9.48053 16.7551 9.54708 17.1033C9.58008 17.2775 9.61344 17.4527 9.65121 17.6329C9.75993 18.1675 9.87799 18.7144 9.99881 19.278C10.1486 19.9715 10.3116 20.6829 10.4868 21.4239C10.6518 22.1252 10.8293 22.8557 11.0152 23.5984C11.1952 24.3076 11.3777 25.0328 11.5786 25.7832C11.7546 26.448 11.9445 27.1311 12.137 27.831C12.1427 27.8648 12.159 27.9005 12.1645 27.9341C12.3587 28.6234 12.5603 29.3351 12.7706 30.0598C12.7722 30.0762 12.7774 30.0921 12.7858 30.1062C12.8181 30.2147 12.8463 30.3163 12.8786 30.4248C13.0201 30.905 13.1683 31.4016 13.3215 31.9007C13.1381 31.8252 12.9577 31.7427 12.7807 31.6534C12.6653 31.2545 12.5507 30.8555 12.437 30.4562C12.3988 30.3141 12.3596 30.1817 12.3215 30.0397L12.3165 30.0347L12.3077 30.031C12.1482 29.4799 12.0008 28.9208 11.8384 28.3532C11.7973 28.1942 11.7572 28.0351 11.7117 27.8701C11.5208 27.1593 11.3318 26.4379 11.1382 25.7104C10.9554 25.0066 10.778 24.3013 10.606 23.5948C10.432 22.8812 10.2645 22.1633 10.0967 21.4452C9.9269 20.7121 9.76537 19.9771 9.61216 19.2404C9.45669 18.5133 9.31296 17.7761 9.16794 17.0507C9.11606 16.7878 9.06753 16.5243 9.02238 16.2601C8.93878 15.8112 8.86159 15.3583 8.78404 14.9049C8.77671 14.8818 8.77506 14.8536 8.76773 14.8309L6.84914 13.8519L8.77414 14.8272C8.67001 14.1188 8.55964 13.4141 8.45404 12.7165C8.35219 11.9838 8.25765 11.25 8.17043 10.5154C8.08554 9.77958 8.0169 9.04197 7.96454 8.30312C7.96004 8.26103 7.9576 8.21875 7.95721 8.17643C7.90794 7.48331 7.87444 6.78915 7.85674 6.0945L5.61806 5.0154C5.61366 5.15107 5.60284 5.29077 5.59679 5.43707C5.57295 6.00524 5.55871 6.57378 5.55408 7.14243C5.54858 7.81747 5.55444 8.52147 5.56654 9.2592C5.58249 9.93753 5.61018 10.6452 5.64684 11.365C5.68314 11.981 5.72384 12.6039 5.77371 13.2384C5.77481 13.2659 5.77866 13.2824 5.77994 13.3099L5.79003 13.3149C5.79424 13.3583 5.80323 13.4067 5.80121 13.4542C5.86134 14.1285 5.91983 14.814 5.99958 15.5021C6.07768 16.2011 6.16531 16.9009 6.26926 17.6091C6.35763 18.2059 6.45259 18.799 6.55159 19.3974C6.57176 19.5147 6.59688 19.6386 6.61686 19.7561C6.75399 20.4968 6.90066 21.2118 7.05979 21.8793C7.23799 22.6372 7.42793 23.3482 7.62079 24.0102C7.75041 24.4443 7.87728 24.8614 8.00726 25.2574C8.11964 25.5909 8.24266 25.9262 8.36109 26.2551C8.64581 27.0291 8.96114 27.7803 9.30104 28.5138L9.31113 28.5187C9.32008 28.5511 9.33179 28.5826 9.34614 28.613C9.76066 29.4996 10.2175 30.3557 10.7303 31.1705C10.7483 31.1948 10.7651 31.2299 10.7831 31.2544C9.95133 30.9197 8.47733 31.0746 8.48778 31.0762C10.0094 31.604 11.3441 32.2514 12.186 33.2308C11.8514 33.5993 11.2253 33.8787 10.4379 34.1067C11.5265 34.2246 12.1334 34.0339 12.3554 33.9373C11.7865 34.4114 11.469 35.2782 11.1896 36.211C11.8299 35.1646 12.4646 34.4719 13.0832 34.2072C13.2255 34.6787 13.38 35.1675 13.5311 35.6513C12.1983 38.2535 10.8365 41.0514 9.45284 43.9999C9.82611 43.9501 10.0753 43.7341 10.2423 43.4278C10.4788 42.9128 11.772 40.165 13.7395 36.3265C14.4967 38.7152 15.3525 41.2362 16.2793 43.8557C16.4831 43.5926 16.5064 43.3014 16.4212 43.005C16.2415 42.5102 15.2592 39.709 14.0294 35.7707C14.309 35.2282 14.6124 34.6503 14.9165 34.0702C15.1687 34.152 15.4155 34.2492 15.6556 34.3614C16.0129 34.7051 16.273 35.2667 16.5051 35.8885C16.5664 35.1745 16.3746 34.4662 15.8954 33.8733C18.3434 34.3458 20.5667 34.0365 21.9235 32.3887C22.0457 32.2362 22.1616 32.0788 22.2711 31.917C21.6755 32.4741 21.0214 32.6573 19.8632 32.4175C21.6898 31.9016 22.6598 31.2858 23.5977 30.1777C23.8352 29.8949 24.0612 29.6027 24.2752 29.3017C22.548 30.625 20.7442 30.8043 18.9596 30.2028C18.9354 30.1905 18.9097 30.1874 18.8769 30.1739C20.5526 30.2107 22.9165 29.3019 24.5463 27.9904C25.2969 27.3863 26.0049 26.6542 26.692 25.7707C27.2065 25.1144 27.6985 24.3763 28.1954 23.5432C28.6235 22.8222 29.0528 22.0317 29.4754 21.1704C29.0713 21.3115 28.6152 21.3929 28.1226 21.4252L27.8591 21.4389C27.7711 21.4435 27.6855 21.4393 27.5893 21.4426C29.2105 21.0796 30.3402 20.087 31.2448 18.7912C30.8038 19.0052 30.0942 19.2668 29.2833 19.3308C29.1773 19.3412 29.0642 19.3425 28.9509 19.3433C28.9252 19.3396 28.8983 19.3433 28.8642 19.3383C29.4255 19.1942 29.9139 19.0133 30.3499 18.7724C30.444 18.7252 30.5305 18.6686 30.6172 18.6118C30.7516 18.5269 30.8792 18.4328 31.0062 18.3382C31.0858 18.2715 31.1639 18.2128 31.2435 18.1461C31.4285 17.9855 31.5998 17.8096 31.7553 17.6203C31.8081 17.5583 31.8606 17.5041 31.9048 17.441C31.9708 17.346 32.0353 17.2599 32.0918 17.1724C32.3362 16.824 32.566 16.4656 32.7807 16.0981C32.8665 15.9522 32.9493 15.8046 33.0291 15.6553C33.0548 15.5981 33.0874 15.5506 33.1131 15.4934C33.1883 15.3389 33.2611 15.201 33.3139 15.078C33.3927 14.898 33.4488 14.7498 33.4822 14.6413C33.4203 14.6798 33.3541 14.711 33.2851 14.7343C32.7846 14.9396 31.9544 15.08 31.2974 15.1057C31.2889 15.1044 31.2809 15.102 31.271 15.1094C31.2343 15.1094 31.1907 15.1121 31.1492 15.113C32.4656 14.7198 33.1039 14.2833 33.7557 13.6097C33.9306 13.4264 34.1077 13.2265 34.2864 13.0175C34.8313 12.392 35.3775 11.6961 35.8726 10.9935C36.3554 10.3152 36.7952 9.64017 37.1376 9.02838C37.3608 8.63422 37.5446 8.26902 37.6884 7.94177C37.8017 7.67009 37.9059 7.39469 38.0008 7.11603C37.0966 7.13484 36.192 7.13526 35.2878 7.11732C36.1955 7.1351 37.1497 7.13015 38.0109 7.10852C38.9244 4.38528 38.1227 2.96115 38.1227 2.96115C38.1227 2.96115 37.1604 0.738233 35.5562 1.40007C34.7774 1.72145 33.4072 2.74023 31.7377 4.26373L32.6814 6.91895C33.7865 5.73957 34.8971 4.70062 35.9828 3.83198C35.6272 4.11963 34.5484 5.05903 32.8445 6.99558C32.3745 7.52762 31.858 8.13958 31.2959 8.82378C31.2642 8.86265 31.2327 8.8929 31.2094 8.93305C30.7208 9.532 30.2071 10.1889 29.6558 10.9182C29.1806 11.5452 28.6819 12.2131 28.1561 12.946C27.7024 13.5697 27.2419 14.2363 26.7509 14.94L26.7219 14.9387C26.7256 14.9741 26.7142 14.9904 26.7045 14.9977C26.6383 15.0925 26.5824 15.1803 26.5162 15.2751C26.3263 15.5607 26.1276 15.8453 25.9365 16.1397C25.7244 16.4569 25.5108 16.7828 25.2877 17.1159C25.1762 17.2824 25.064 17.4491 24.9515 17.6241C24.6141 18.141 24.2757 18.6746 23.9248 19.2241C23.4805 19.9251 23.043 20.6303 22.6123 21.3398C22.173 22.0599 21.7388 22.7831 21.3097 23.5093C20.8916 24.2232 20.4618 24.9529 20.0273 25.7167C19.6409 26.3917 19.2504 27.0922 18.849 27.8085C18.827 27.8402 18.8122 27.8811 18.79 27.9126C18.3986 28.6218 17.9954 29.3556 17.5892 30.1062C17.5782 30.122 17.5666 30.1381 17.5641 30.1552C17.5039 30.2683 17.4449 30.3733 17.3846 30.4864C17.0729 31.0678 16.7502 31.664 16.4334 32.2794C16.4322 32.2881 16.4221 32.2961 16.421 32.3047C16.3729 32.3935 16.3273 32.4732 16.2879 32.5632C16.0752 32.9666 15.882 33.3512 15.4647 34.1557C15.3364 34.0316 15.195 33.9217 15.043 33.8281C15.2599 33.4159 15.44 33.0577 15.668 32.6298C15.7527 32.4679 15.8455 32.3069 15.9315 32.1366C15.956 32.0879 15.9797 32.0484 16.0043 31.9997C16.3271 31.4026 16.6608 30.7889 17.0056 30.1601C17.0879 30.0153 17.1605 29.8781 17.2429 29.7335L17.2441 29.7247L17.2405 29.7146C17.5494 29.1446 17.8754 28.5774 18.1953 27.9918C18.2886 27.8312 18.3819 27.6703 18.4763 27.501C18.8874 26.7774 19.3079 26.0472 19.73 25.3076C20.1424 24.5958 20.5602 23.8872 20.9836 23.1819C21.4104 22.4693 21.8456 21.7589 22.281 21.0473C22.7275 20.3202 23.1803 19.6027 23.6427 18.8866C24.0951 18.1776 24.5645 17.4712 25.0243 16.772C25.1922 16.5179 25.3598 16.2721 25.5361 16.0192C25.8254 15.5912 26.123 15.1647 26.4209 14.7379C26.4332 14.7137 26.4539 14.6908 26.466 14.6664L25.6716 12.271L26.4748 14.6677C26.9538 14.015 27.4248 13.3605 27.894 12.7152C28.4036 12.0321 28.9104 11.3664 29.4149 10.7174C29.9403 10.0453 30.4711 9.40055 31.0073 8.77373C31.0392 8.73468 31.0708 8.6949 31.1014 8.66447C31.6266 8.05342 32.1475 7.46895 32.6738 6.91015L31.7302 4.26245C31.6188 4.36805 31.4987 4.472 31.3775 4.58512C30.9065 5.0231 30.443 5.46903 29.9871 5.92272C29.4463 6.46172 28.892 7.03445 28.3156 7.63798C27.7895 8.19678 27.2505 8.78877 26.7082 9.39725C26.248 9.92213 25.7856 10.4543 25.3216 11.0047C25.3007 11.0278 25.2897 11.0445 25.2688 11.0676L25.274 11.0813C25.2428 11.1197 25.2103 11.1638 25.1709 11.2005C24.6836 11.791 24.1866 12.3889 23.7041 13.0063C23.2075 13.6353 22.7218 14.2728 22.2471 14.9185C21.8446 15.4694 21.4469 16.0237 21.0538 16.5813C20.9766 16.6919 20.8989 16.8109 20.8217 16.9214C20.3436 17.6265 19.8939 18.3192 19.4916 18.9832C19.0327 19.7347 18.6212 20.4579 18.2505 21.144C18.0179 21.578 17.7912 22.0152 17.5703 22.4553C17.3959 22.813 17.2293 23.1806 17.0634 23.5396C16.6775 24.3888 16.3337 25.2438 16.0244 26.1044L16.0281 26.1158C16.0097 26.1491 15.9941 26.1839 15.9817 26.2199C15.7843 26.7754 15.607 27.3344 15.4458 27.8952C15.1885 28.214 14.8907 28.4979 14.56 28.7396C14.4824 28.6432 14.3997 28.5603 14.3178 28.4698C15.0775 27.3729 15.6713 25.8323 15.8349 24.4078C15.932 23.5616 15.9223 22.6612 15.8061 21.6786C15.7221 20.9461 15.5742 20.176 15.3694 19.3433C15.1769 18.5722 14.9538 17.809 14.7006 17.0556C14.5337 17.3953 14.2978 17.7296 14.0078 18.0559C13.9553 18.1133 13.9022 18.1703 13.8497 18.2277C13.7973 18.2851 13.7414 18.3366 13.6829 18.3984C14.4775 17.1629 14.571 15.8366 14.3354 14.4594C14.1909 14.8679 13.9073 15.4729 13.4369 16.0167C13.3728 16.0912 13.3054 16.1628 13.2348 16.2312C13.2165 16.2447 13.2029 16.2634 13.1784 16.2814C13.442 15.8421 13.6371 15.4252 13.7619 15.0027C13.7918 14.9147 13.8105 14.8252 13.8297 14.7355C13.8601 14.5985 13.8852 14.4602 13.9049 14.3212C13.9135 14.2301 13.9265 14.1454 13.935 14.0541C13.9515 13.8381 13.9499 13.621 13.93 13.4053C13.9245 13.3338 13.924 13.268 13.9124 13.2009C13.8952 13.1 13.8824 13.0047 13.8635 12.9147C13.801 12.5435 13.7231 12.1752 13.6301 11.8105C13.5933 11.6653 13.5536 11.521 13.5109 11.3774C13.4917 11.3255 13.4838 11.2751 13.4645 11.2231C13.4156 11.0793 13.3758 10.9481 13.3325 10.8381C13.2843 10.7088 13.229 10.5822 13.167 10.4589C13.1519 10.5215 13.1296 10.5822 13.1006 10.6397C12.9131 11.0797 12.478 11.6823 12.0804 12.1065C12.0741 12.1111 12.0683 12.1159 12.0666 12.1267C12.0435 12.1491 12.0177 12.1771 11.9926 12.2032C12.5761 11.1387 12.707 10.4677 12.6989 9.63943C12.694 9.40493 12.6828 9.17061 12.6652 8.93672C12.6171 8.17995 12.5309 7.42611 12.4067 6.67805C12.2892 5.95132 12.1445 5.2541 11.9799 4.65643C11.8758 4.26978 11.7652 3.9253 11.6525 3.62995C11.5555 3.38854 11.4504 3.15044 11.3375 2.91605C10.5461 3.73078 9.59584 4.6568 8.77891 5.38812C9.59584 4.65643 10.5462 3.72877 11.3388 2.90578C10.2225 0.625116 8.83281 0.227099 8.83281 0.227099C8.83281 0.227099 8.33653 0.025616 7.76508 0.0021493ZM13.9628 28.9354C13.983 28.9864 14.0013 29.0377 14.0206 29.0885C13.9124 29.1499 13.8068 29.2137 13.693 29.2691C13.6701 29.2764 13.6519 29.29 13.6228 29.3017C13.7384 29.1925 13.8514 29.0667 13.9628 28.9354ZM12.8522 31.8994C13.0913 32.1506 13.3155 32.3614 13.5073 32.5055C13.5393 32.6105 13.6013 32.8084 13.6365 32.9207C13.49 32.9418 13.3386 32.9873 13.1873 33.03C13.1672 32.9622 13.1499 32.9086 13.1296 32.8404C13.0825 32.6861 13.0407 32.5268 12.989 32.3662C12.9743 32.3203 12.9637 32.2815 12.9488 32.2356C12.9173 32.1267 12.8841 32.0096 12.8522 31.8994ZM13.3391 33.5219C13.5122 33.5191 13.6756 33.5256 13.8297 33.5408C13.8802 33.7016 13.8932 33.7426 13.9603 33.9599C14.1002 33.9309 14.2518 33.9353 14.4094 33.9536C14.2142 34.3249 14.0177 34.7108 13.8209 35.0918C13.6614 34.5751 13.5051 34.073 13.3391 33.5219Z" fill="#CF3465"/>
</g>
<defs>
<clipPath id="clip0_21_25">
<rect width="44" height="44" fill="white"/>
</clipPath>
</defs>
</svg>
