<svg width="42" height="42" viewBox="0 0 42 42" fill="none" xmlns="http://www.w3.org/2000/svg">
<path fill-rule="evenodd" clip-rule="evenodd" d="M7 8.75C6.03351 8.75 5.25 9.53351 5.25 10.5C5.25 11.4665 6.03351 12.25 7 12.25H35C35.9665 12.25 36.75 11.4665 36.75 10.5C36.75 9.53351 35.9665 8.75 35 8.75H7ZM5.25 21C5.25 20.0335 6.03351 19.25 7 19.25H35C35.9665 19.25 36.75 20.0335 36.75 21C36.75 21.9665 35.9665 22.75 35 22.75H7C6.03351 22.75 5.25 21.9665 5.25 21ZM5.25 31.5C5.25 30.5335 6.03351 29.75 7 29.75H35C35.9665 29.75 36.75 30.5335 36.75 31.5C36.75 32.4665 35.9665 33.25 35 33.25H7C6.03351 33.25 5.25 32.4665 5.25 31.5Z" fill="white"/>
</svg>
