<svg width="44" height="44" viewBox="0 0 44 44" fill="none" xmlns="http://www.w3.org/2000/svg">
<path fill-rule="evenodd" clip-rule="evenodd" d="M16.5 9.625C16.5 8.53098 16.9346 7.48177 17.7082 6.70818C18.4818 5.9346 19.531 5.5 20.625 5.5H23.375C24.469 5.5 25.5182 5.9346 26.2918 6.70818C27.0654 7.48177 27.5 8.53098 27.5 9.625V12.375C27.5 13.469 27.0654 14.5182 26.2918 15.2918C25.5182 16.0654 24.469 16.5 23.375 16.5V19.25H38.5C38.8647 19.25 39.2144 19.3949 39.4723 19.6527C39.7301 19.9106 39.875 20.2603 39.875 20.625V23.375C39.875 23.7397 39.7301 24.0894 39.4723 24.3473C39.2144 24.6051 38.8647 24.75 38.5 24.75C38.1353 24.75 37.7856 24.6051 37.5277 24.3473C37.2699 24.0894 37.125 23.7397 37.125 23.375V22H23.375V23.375C23.375 23.7397 23.2301 24.0894 22.9723 24.3473C22.7144 24.6051 22.3647 24.75 22 24.75C21.6353 24.75 21.2856 24.6051 21.0277 24.3473C20.7699 24.0894 20.625 23.7397 20.625 23.375V22H6.875V23.375C6.875 23.7397 6.73013 24.0894 6.47227 24.3473C6.21441 24.6051 5.86467 24.75 5.5 24.75C5.13533 24.75 4.78559 24.6051 4.52773 24.3473C4.26987 24.0894 4.125 23.7397 4.125 23.375V20.625C4.125 20.2603 4.26987 19.9106 4.52773 19.6527C4.78559 19.3949 5.13533 19.25 5.5 19.25H20.625V16.5C19.531 16.5 18.4818 16.0654 17.7082 15.2918C16.9346 14.5182 16.5 13.469 16.5 12.375V9.625ZM23.375 13.75C23.7397 13.75 24.0894 13.6051 24.3473 13.3473C24.6051 13.0894 24.75 12.7397 24.75 12.375V9.625C24.75 9.26033 24.6051 8.91059 24.3473 8.65273C24.0894 8.39487 23.7397 8.25 23.375 8.25H20.625C20.2603 8.25 19.9106 8.39487 19.6527 8.65273C19.3949 8.91059 19.25 9.26033 19.25 9.625V12.375C19.25 12.7397 19.3949 13.0894 19.6527 13.3473C19.9106 13.6051 20.2603 13.75 20.625 13.75H23.375ZM0 31.625C0 30.531 0.434597 29.4818 1.20818 28.7082C1.98177 27.9346 3.03098 27.5 4.125 27.5H6.875C7.96902 27.5 9.01823 27.9346 9.79182 28.7082C10.5654 29.4818 11 30.531 11 31.625V34.375C11 35.469 10.5654 36.5182 9.79182 37.2918C9.01823 38.0654 7.96902 38.5 6.875 38.5H4.125C3.03098 38.5 1.98177 38.0654 1.20818 37.2918C0.434597 36.5182 0 35.469 0 34.375L0 31.625ZM4.125 30.25C3.76033 30.25 3.41059 30.3949 3.15273 30.6527C2.89487 30.9106 2.75 31.2603 2.75 31.625V34.375C2.75 34.7397 2.89487 35.0894 3.15273 35.3473C3.41059 35.6051 3.76033 35.75 4.125 35.75H6.875C7.23967 35.75 7.58941 35.6051 7.84727 35.3473C8.10513 35.0894 8.25 34.7397 8.25 34.375V31.625C8.25 31.2603 8.10513 30.9106 7.84727 30.6527C7.58941 30.3949 7.23967 30.25 6.875 30.25H4.125ZM16.5 31.625C16.5 30.531 16.9346 29.4818 17.7082 28.7082C18.4818 27.9346 19.531 27.5 20.625 27.5H23.375C24.469 27.5 25.5182 27.9346 26.2918 28.7082C27.0654 29.4818 27.5 30.531 27.5 31.625V34.375C27.5 35.469 27.0654 36.5182 26.2918 37.2918C25.5182 38.0654 24.469 38.5 23.375 38.5H20.625C19.531 38.5 18.4818 38.0654 17.7082 37.2918C16.9346 36.5182 16.5 35.469 16.5 34.375V31.625ZM20.625 30.25C20.2603 30.25 19.9106 30.3949 19.6527 30.6527C19.3949 30.9106 19.25 31.2603 19.25 31.625V34.375C19.25 34.7397 19.3949 35.0894 19.6527 35.3473C19.9106 35.6051 20.2603 35.75 20.625 35.75H23.375C23.7397 35.75 24.0894 35.6051 24.3473 35.3473C24.6051 35.0894 24.75 34.7397 24.75 34.375V31.625C24.75 31.2603 24.6051 30.9106 24.3473 30.6527C24.0894 30.3949 23.7397 30.25 23.375 30.25H20.625ZM33 31.625C33 30.531 33.4346 29.4818 34.2082 28.7082C34.9818 27.9346 36.031 27.5 37.125 27.5H39.875C40.969 27.5 42.0182 27.9346 42.7918 28.7082C43.5654 29.4818 44 30.531 44 31.625V34.375C44 35.469 43.5654 36.5182 42.7918 37.2918C42.0182 38.0654 40.969 38.5 39.875 38.5H37.125C36.031 38.5 34.9818 38.0654 34.2082 37.2918C33.4346 36.5182 33 35.469 33 34.375V31.625ZM37.125 30.25C36.7603 30.25 36.4106 30.3949 36.1527 30.6527C35.8949 30.9106 35.75 31.2603 35.75 31.625V34.375C35.75 34.7397 35.8949 35.0894 36.1527 35.3473C36.4106 35.6051 36.7603 35.75 37.125 35.75H39.875C40.2397 35.75 40.5894 35.6051 40.8473 35.3473C41.1051 35.0894 41.25 34.7397 41.25 34.375V31.625C41.25 31.2603 41.1051 30.9106 40.8473 30.6527C40.5894 30.3949 40.2397 30.25 39.875 30.25H37.125Z" fill="#CF3465"/>
</svg>
