<svg width="44" height="44" viewBox="0 0 44 44" fill="none" xmlns="http://www.w3.org/2000/svg">
<path fill-rule="evenodd" clip-rule="evenodd" d="M12.0794 9.43935C11.7151 9.4382 11.3523 9.48442 11 9.57685V9.62498H11.0523C11.3046 10.0059 11.5859 10.3667 11.8937 10.7044C12.1055 11.1251 12.2897 11.5445 12.5001 11.9652C12.5262 11.9391 12.5524 11.9116 12.5524 11.9116C12.7477 11.7566 12.9006 11.5546 12.9968 11.3245C13.0929 11.0944 13.1293 10.8437 13.1024 10.5957C12.9872 10.4182 12.8817 10.2346 12.7861 10.0457C12.628 9.7831 12.2856 9.6511 12.0752 9.44073" fill="#CF3465"/>
<path fill-rule="evenodd" clip-rule="evenodd" d="M38.1975 32.3854C36.4631 32.2636 34.7227 32.5149 33.0935 33.1224C32.6989 33.2806 32.0692 33.2805 32.0142 33.7797C32.2259 33.99 32.2507 34.3297 32.4363 34.6226C32.7964 35.2323 33.2593 35.7752 33.8044 36.2272C34.3544 36.6479 34.9044 37.0673 35.4888 37.4358C36.5132 38.0697 37.6723 38.4368 38.6705 39.0679C39.2508 39.4364 39.8283 39.9094 40.4085 40.3054C40.6973 40.5158 40.8802 40.8554 41.2487 40.9929V40.9132C41.1404 40.621 41.0065 40.3389 40.8485 40.0703C40.5859 39.8091 40.3219 39.5712 40.0579 39.3085C39.2866 38.2887 38.3639 37.3928 37.3217 36.6521C36.4788 36.0718 34.6363 35.2771 34.2967 34.3145L34.243 34.2609C34.8598 34.1735 35.4676 34.0318 36.0594 33.8374C36.9532 33.6009 37.7685 33.6546 38.6884 33.4249C39.1105 33.319 39.8737 33.0564 39.8737 33.0564V32.6439C39.4034 32.1764 39.0665 31.5508 38.5715 31.1094C37.2249 29.9339 35.7897 28.8637 34.2788 27.9084C33.4717 27.3873 32.4308 27.0518 31.5714 26.6077C31.2607 26.4509 30.7464 26.3739 30.558 26.1127C30.1306 25.4856 29.7728 24.8139 29.491 24.1093C28.7375 22.6793 28.0074 21.0939 27.3584 19.5814C26.9743 18.5678 26.5312 17.5775 26.0315 16.6155C23.6202 12.5159 20.1397 9.14903 15.9624 6.87505C14.9084 6.36486 13.7878 6.00567 12.6335 5.80805C11.9818 5.78055 11.3328 5.72968 10.6824 5.70493C10.2626 5.42988 9.86323 5.12474 9.48753 4.79193C7.99978 3.85005 4.17728 1.82605 3.08279 4.50593C2.38153 6.19855 4.12503 7.8623 4.72316 8.72167C5.2275 9.32762 5.67187 9.98105 6.05003 10.6728C6.23291 11.1156 6.28516 11.5844 6.46253 12.0478C6.84421 13.2373 7.29741 14.4027 7.81966 15.5375C8.09898 16.0984 8.42075 16.6372 8.78216 17.149C8.99253 17.4364 9.35554 17.5615 9.43391 18.0359C9.14555 18.6557 8.94383 19.3123 8.83441 19.987C8.3799 21.4224 8.21262 22.9333 8.34215 24.4333C8.47167 25.9333 8.89545 27.3931 9.58928 28.7293C10.0018 29.3797 10.9945 30.8111 12.3214 30.2638C13.4915 29.7963 13.2317 28.3127 13.5699 27.0133C13.6469 26.6984 13.596 26.4922 13.7514 26.2845V26.5375C13.7514 26.5375 14.4155 27.9964 14.7455 28.7375C15.643 30.0974 16.7578 31.3006 18.0455 32.2988C18.5549 32.7435 18.9652 33.2902 19.25 33.9034V34.375H19.8372C19.8249 34.1624 19.766 33.9551 19.6645 33.7678C19.563 33.5805 19.4215 33.4179 19.25 33.2915C18.7686 32.796 18.3276 32.2626 17.9314 31.6966C16.8551 30.1637 15.906 28.5454 15.0934 26.8579C14.6809 26.0329 14.333 25.1282 14.003 24.3046C13.8518 23.9869 13.8518 23.507 13.5974 23.342C13.1277 23.8978 12.7201 24.5032 12.3819 25.1474C11.9713 26.4496 11.7324 27.7998 11.671 29.1638C11.5707 29.1913 11.6202 29.1638 11.5707 29.216C10.7608 29.0029 10.4817 28.1271 10.1764 27.3846C9.38786 25.0946 9.30831 22.62 9.94816 20.284C10.1242 19.7272 10.8873 17.9727 10.582 17.4405C10.4294 16.9332 9.92203 16.643 9.64428 16.2429C9.2897 15.7046 8.98458 15.1354 8.73266 14.542C8.12903 13.0625 7.82378 11.4125 7.16653 9.92205C6.80271 9.20521 6.37908 8.52033 5.90016 7.87468C5.37039 7.22971 4.90309 6.53589 4.50453 5.80255C4.37803 5.50968 4.20066 5.03118 4.40278 4.71218C4.41643 4.62356 4.45857 4.54181 4.52282 4.47929C4.58708 4.41677 4.66996 4.37688 4.75891 4.36568C5.08616 4.07418 6.02528 4.44543 6.35391 4.60493C7.23715 4.95263 8.07844 5.39865 8.86191 5.93455C9.21666 6.2013 10.0527 6.87643 10.0527 6.87643H10.3002C11.1417 7.0593 12.0877 6.9273 12.8797 7.16518C14.2132 7.6097 15.4858 8.21944 16.6678 8.98018C20.1516 11.201 22.9837 14.3065 24.8752 17.9795C25.1914 18.5832 25.3248 19.1373 25.6135 19.767C26.1635 21.0595 26.851 22.3796 27.401 23.6363C27.8862 24.8797 28.5138 26.0627 29.271 27.1618C29.6643 27.7118 31.2442 28.0033 31.955 28.292C32.5724 28.5056 33.1782 28.7512 33.77 29.0277C34.6652 29.5777 35.5575 30.2115 36.4004 30.8152C36.8198 31.1314 38.1357 31.7887 38.2154 32.3153" fill="#CF3465"/>
</svg>
