<svg width="46" height="46" viewBox="0 0 46 46" fill="none" xmlns="http://www.w3.org/2000/svg">
<path d="M42.4163 26.9862C42.2949 26.6329 42.0761 26.3212 41.7851 26.0869C41.4942 25.8526 41.1429 25.7054 40.7718 25.6623C40.3334 25.6096 39.8892 25.6344 39.4594 25.7356C38.7946 25.8824 38.1184 25.9714 37.4382 26.0015C39.257 22.9331 40.6461 19.6295 41.5667 16.1834C42.9367 10.8805 42.205 8.46547 41.3497 7.37153C40.2138 5.93453 38.7602 4.78057 37.103 4.00036C35.4458 3.22014 33.6302 2.83494 31.7989 2.87503C30.119 2.85929 28.4461 3.09378 26.8352 3.57078C25.8758 3.40629 24.9049 3.31785 23.9315 3.30628C22.1623 3.23911 20.4098 3.67099 18.8744 4.55259C17.7099 4.15889 16.5159 3.85893 15.3036 3.65559C13.8905 3.31658 12.4243 3.25939 10.989 3.4873C9.55375 3.71521 8.17745 4.22375 6.93881 4.98384C4.44619 6.74334 3.29044 9.80234 3.50462 14.076C3.88812 17.2643 4.56469 20.4104 5.52575 23.4744C6.07924 25.3883 6.80777 27.2472 7.70212 29.0275C8.36262 30.6515 9.61824 31.9622 11.2125 32.6917C11.7969 32.8842 12.4221 32.917 13.0234 32.7865C13.6247 32.6561 14.1802 32.3673 14.6323 31.9499C14.8375 32.1929 15.0801 32.4015 15.3511 32.568C15.771 32.8286 16.2287 33.0226 16.7081 33.143C18.277 33.58 19.9471 33.4788 21.4518 32.8555C21.4604 33.1013 21.4676 33.3371 21.4719 33.5412C21.4806 33.8704 21.4906 34.1938 21.5021 34.4972C21.4851 36.1006 21.6986 37.6982 22.1361 39.2409C22.1591 39.3027 22.1892 39.3947 22.2209 39.4939C22.4734 40.4381 22.9639 41.3018 23.6454 42.0023C24.4626 42.7527 25.5409 43.1536 26.6498 43.1193C27.1221 43.1163 27.5929 43.0638 28.0542 42.9626C28.9289 42.8528 29.7727 42.5689 30.5358 42.1277C31.2989 41.6865 31.966 41.0969 32.4976 40.3938C33.6634 38.7335 34.2312 36.2337 34.3332 32.2935C34.3462 32.1813 34.3591 32.075 34.3706 31.9743L34.3951 31.7659L34.6696 31.7903H34.7401C36.2946 31.8562 37.8451 31.5875 39.2869 31.0026C40.1939 30.5814 43.102 29.0462 42.4163 26.9776" fill="#CF3465"/>
<path d="M39.803 27.3887C35.2561 28.3259 34.9442 26.7878 34.9442 26.7878C39.744 19.665 41.7508 10.6231 40.0186 8.41081C35.295 2.37331 27.117 5.22962 26.9805 5.30293L26.9359 5.31156C25.937 5.11109 24.9215 5.0052 23.9028 4.99531C22.1848 4.90911 20.4895 5.41669 19.1015 6.43281C19.1015 6.43281 4.51377 0.422619 5.19227 13.9912C5.33602 16.8777 9.32939 35.8326 14.0918 30.107C15.8326 28.014 17.5145 26.243 17.5145 26.243C18.3616 26.8147 19.3807 27.0748 20.3981 26.979L20.4801 26.91C20.456 27.182 20.4671 27.4559 20.5131 27.7251C19.2855 29.0964 19.6506 29.3365 17.194 29.8411C14.7128 30.3528 16.1705 31.2627 17.1221 31.5014C18.1332 31.8284 19.2217 31.8277 20.2324 31.4994C21.243 31.171 22.1241 30.5318 22.7499 29.6729L22.678 29.9604C23.1581 30.3456 23.496 32.4645 23.4399 34.3864C23.2831 35.8159 23.3804 37.2617 23.7274 38.6572C24.1069 39.6879 24.4835 42.0052 27.7078 41.3152C28.8544 41.2019 29.9208 40.6761 30.7087 39.8355C31.4967 38.995 31.9526 37.8969 31.9916 36.7454C32.1353 34.9715 32.4415 35.2331 32.4602 33.6476L32.7103 32.8972C32.9978 30.4922 32.7563 29.716 34.4152 30.0768L34.8191 30.1127C36.1026 30.1667 37.3831 29.9512 38.5782 29.4802C40.5993 28.543 41.7968 26.9761 39.8044 27.3887" fill="#CF3465"/>
<path d="M19.9554 15.2821C19.6256 15.2127 19.2819 15.2637 18.9865 15.4258C18.948 15.4535 18.9155 15.4887 18.8908 15.5291C18.8661 15.5696 18.8498 15.6147 18.8428 15.6616C18.8428 15.8273 18.9025 15.9876 19.011 16.1129C19.2038 16.3778 19.4919 16.5576 19.8145 16.6146C19.8574 16.6206 19.9006 16.6234 19.9439 16.6233C20.1575 16.626 20.3667 16.5631 20.5434 16.4431C20.72 16.323 20.8555 16.1515 20.9315 15.9519C20.9818 15.5954 20.4628 15.3568 19.9597 15.2864M33.5326 15.2979C33.4938 15.0176 32.995 14.9385 32.5263 15.0104C32.0577 15.0823 31.5963 15.2893 31.6351 15.5696C31.7082 15.7454 31.832 15.8955 31.9907 16.0008C32.1494 16.106 32.3359 16.1615 32.5263 16.1604C32.5663 16.1603 32.6061 16.1574 32.6456 16.1518C32.8949 16.108 33.1228 15.9832 33.294 15.7967C33.4371 15.671 33.5244 15.4937 33.5369 15.3036" fill="white"/>
<path d="M41.3152 27.2823C41.1412 26.7576 40.5835 26.5895 39.6563 26.7806C36.9035 27.3556 35.9188 26.9546 35.5939 26.7174C37.7738 23.371 39.4103 19.7007 40.4426 15.8427C40.8604 14.3166 41.1016 12.7476 41.1614 11.1665C41.2721 10.0606 41.0149 8.94894 40.4297 8.00402C39.3936 6.70012 38.0689 5.65463 36.56 4.94993C35.0511 4.24522 33.3991 3.90055 31.7342 3.94308C30.0241 3.91632 28.3222 4.18426 26.703 4.73515C25.7769 4.50664 24.8277 4.38462 23.874 4.37146C22.158 4.29606 20.462 4.76333 19.0267 5.7069C17.7492 5.2398 16.4304 4.89423 15.088 4.67477C12.5218 4.05376 9.81422 4.46955 7.55261 5.83196C5.39636 7.36146 4.39011 10.0956 4.58992 13.9581C4.96752 17.0538 5.62818 20.1084 6.56361 23.0834C8.10174 28.1218 9.77355 30.9753 11.533 31.5646C11.7605 31.6413 11.9988 31.6806 12.2389 31.6811C12.6855 31.6534 13.12 31.5243 13.5093 31.3037C13.8986 31.083 14.2325 30.7765 14.4857 30.4075C15.4843 29.2095 16.5169 28.0413 17.5835 26.9028C18.2692 27.2739 19.0323 27.4792 19.8116 27.5023V27.5626C19.6774 27.7217 19.5466 27.8837 19.4192 28.0485C18.8801 28.7313 18.7694 28.8736 17.0358 29.2316C16.5427 29.3336 15.2332 29.6039 15.2145 30.5253C15.1944 31.5316 16.7627 31.9499 16.9395 31.9945C17.5262 32.1453 18.1292 32.2235 18.7349 32.2273C20.0598 32.2518 21.3444 31.7718 22.3287 30.8847C22.1817 33.6204 22.3656 36.3638 22.8764 39.0555C23.1124 39.9172 23.6232 40.6783 24.3313 41.2231C25.0393 41.768 25.9059 42.0668 26.7993 42.0742C27.2425 42.0728 27.6844 42.0247 28.1175 41.9305C29.3001 41.8283 30.4072 41.3069 31.2391 40.4602C32.071 39.6135 32.5729 38.4974 32.6542 37.3132C32.9087 35.8383 33.3457 32.3179 33.5512 30.429C34.0707 30.5718 34.6082 30.6381 35.1469 30.626C36.3874 30.6349 37.6176 30.4005 38.7679 29.936C39.7914 29.4601 41.6429 28.2958 41.3022 27.2823H41.3152ZM34.5733 14.5188C34.5549 15.0524 34.4992 15.5842 34.4065 16.1101C34.2997 16.7281 34.2325 17.3523 34.2053 17.9788C34.2004 18.6858 34.2485 19.3922 34.349 20.092C34.6596 21.5243 34.5451 23.0161 34.0199 24.3843C33.9083 24.1865 33.8089 23.9819 33.7223 23.772C33.6389 23.5693 33.4564 23.243 33.2062 22.793C32.2287 21.0393 29.9374 16.9309 31.1104 15.2548C31.4597 14.756 32.3466 14.2485 34.5719 14.5188H34.5733ZM31.8751 5.07583C33.3465 5.04575 34.8049 5.35752 36.1354 5.9866C37.4659 6.61568 38.6322 7.54492 39.5427 8.70121C40.9443 10.4909 39.399 18.6372 34.9355 25.6637L34.8004 25.4926L34.7444 25.4222C35.6311 23.7466 35.8891 21.809 35.4717 19.9597C35.3756 19.3163 35.3276 18.6667 35.328 18.0162C35.354 17.4349 35.4169 16.8559 35.5163 16.2826C35.6456 15.5747 35.7049 14.8559 35.6931 14.1364C35.7165 14.0376 35.7228 13.9355 35.7118 13.8345C35.2355 11.9096 34.2914 10.132 32.9633 8.65952C31.7699 7.25328 30.2774 6.13152 28.5947 5.37627C29.6723 5.15158 30.7717 5.04839 31.8722 5.06865L31.8751 5.07583ZM13.626 29.6901C12.7247 30.774 12.1009 30.567 11.901 30.498C10.567 30.0524 9.01742 27.232 7.65323 22.7585C6.74744 19.8709 6.10277 16.9079 5.72699 13.905C5.55449 10.455 6.39111 8.04858 8.21386 6.75483C11.1794 4.65177 16.0569 5.91102 18.0162 6.54927C17.9874 6.57658 17.9587 6.60246 17.9314 6.63121C14.7157 9.87852 14.7919 15.4273 14.8005 15.7665C14.8005 15.8973 14.8105 16.0828 14.8264 16.3415C14.9442 17.8873 14.9052 19.441 14.7099 20.9789C14.5763 21.8595 14.6449 22.7589 14.9107 23.609C15.1765 24.4591 15.6323 25.2374 16.2437 25.8851C16.3712 26.0173 16.5044 26.1429 16.6434 26.2617C16.0928 26.8511 14.8954 28.1563 13.6246 29.6901H13.626ZM17.0617 25.1045C16.5659 24.5804 16.1963 23.9501 15.9808 23.2616C15.7653 22.5731 15.7097 21.8445 15.8182 21.1313C16.0243 19.5196 16.0662 17.8912 15.9433 16.2711C15.9347 16.1345 15.9275 16.0152 15.9232 15.9218C17.1273 15.0142 18.6217 14.5781 20.125 14.6956C20.4709 14.774 20.7837 14.9581 21.0202 15.2224C21.2567 15.4867 21.405 15.818 21.4446 16.1705C22.3732 20.4671 21.5668 22.2568 20.9199 23.6958C20.7862 23.9919 20.6597 24.2708 20.5534 24.5583L20.47 24.7825C20.2634 25.3034 20.0868 25.8357 19.941 26.3767C19.4006 26.369 18.8673 26.2521 18.3732 26.033C17.8791 25.8139 17.4345 25.4971 17.066 25.1016L17.0617 25.1045ZM17.2241 30.8976C16.9574 30.832 16.7034 30.7227 16.4723 30.5742C16.7292 30.4644 16.9979 30.3844 17.273 30.3356C19.3114 29.9158 19.6262 29.6168 20.3147 28.7471C20.4729 28.5473 20.6511 28.3159 20.8984 28.0442C21.2664 27.6316 21.436 27.7021 21.7407 27.8286C21.8853 27.9071 22.012 28.0147 22.113 28.1445C22.2139 28.2744 22.2869 28.4238 22.3272 28.5833C22.3674 28.699 22.3818 28.8222 22.3694 28.9441C22.357 29.066 22.318 29.1838 22.2554 29.2891C21.6981 30.0586 20.9095 30.6298 20.0046 30.9195C19.0998 31.2091 18.1261 31.202 17.2255 30.8991L17.2241 30.8976ZM27.8961 40.825C27.4927 40.9653 27.0642 41.0189 26.6387 40.9823C26.2131 40.9458 25.8001 40.8199 25.4265 40.6129C25.0529 40.4059 24.7271 40.1224 24.4705 39.781C24.2139 39.4395 24.0322 39.0478 23.9372 38.6314C23.431 35.3736 23.2864 32.0698 23.506 28.7802C23.5074 28.7199 23.4992 28.6597 23.4815 28.602C23.4665 28.4902 23.4434 28.3797 23.4125 28.2713C23.3274 27.948 23.1723 27.6473 22.9582 27.3904C22.7441 27.1336 22.4762 26.9269 22.1734 26.785C21.8205 26.61 21.4188 26.5593 21.0335 26.6412C21.1697 26.1427 21.3338 25.6522 21.5251 25.1721L21.6085 24.9464C21.7034 24.692 21.8212 24.4289 21.9463 24.15C22.6234 22.645 23.552 20.5821 22.5443 15.9246C22.4805 15.5285 22.3363 15.1495 22.1204 14.8113C21.9046 14.473 21.6218 14.1825 21.2894 13.9577C20.957 13.7329 20.582 13.5786 20.1877 13.5042C19.7934 13.4299 19.388 13.4371 18.9965 13.5255C18.0497 13.6483 17.1317 13.9358 16.284 14.375C16.1719 14.4325 16.0684 14.4871 15.9735 14.5403C16.0822 11.9283 17.0516 9.42561 18.7306 7.42183C19.405 6.76185 20.2099 6.25009 21.0936 5.91936C21.9774 5.58864 22.9205 5.44625 23.8625 5.50133C25.4539 5.51515 27.0228 5.87799 28.4587 6.56426C29.8946 7.25053 31.1624 8.24351 32.1727 9.47315C33.1586 10.6245 33.929 11.9441 34.4468 13.3688C32.3437 13.1546 30.9134 13.57 30.1889 14.6065C28.6077 16.8605 31.0514 21.2362 32.2244 23.3393C32.44 23.7245 32.6255 24.058 32.683 24.2018C32.9927 24.9249 33.41 25.5971 33.9207 26.1956C34.0314 26.3393 34.1392 26.4673 34.2197 26.5851C33.5829 26.7691 32.4386 27.1932 32.5435 29.3164C32.4602 30.3801 31.8622 35.3611 31.5574 37.122C31.1564 39.4465 30.301 40.3133 27.8947 40.8293L27.8961 40.825ZM38.3065 28.911C37.4215 29.2621 36.4823 29.4567 35.5307 29.486C34.8975 29.5793 34.2509 29.4962 33.6619 29.246C33.5972 27.9249 34.0932 27.7869 34.6107 27.6403C34.6926 27.6173 34.7717 27.5943 34.8493 27.5684C34.9 27.6094 34.9528 27.6477 35.0074 27.6834C35.926 28.29 37.5662 28.3547 39.8805 27.8775H39.9064C39.428 28.3028 38.8869 28.6519 38.3022 28.9125L38.3065 28.911Z" fill="white"/>
</svg>
