<svg width="44" height="44" viewBox="0 0 44 44" fill="none" xmlns="http://www.w3.org/2000/svg">
<path d="M18.2531 21.835H25.7015C27.775 21.835 29.4305 20.1286 29.4305 18.0455V10.945C29.4305 8.92374 27.7255 7.40574 25.7015 7.06886C24.42 6.85574 23.0917 6.75811 21.8171 6.76499C20.5425 6.77186 19.3242 6.87911 18.2531 7.06886C15.0975 7.62574 14.5241 8.79311 14.5241 10.945V13.7871H21.9807V14.7345H11.7246C9.55761 14.7345 7.66011 16.0366 7.06611 18.5157C6.38136 21.3565 6.35111 23.1289 7.06611 26.0947C7.59548 28.303 8.86186 29.876 11.0289 29.876H13.5932V26.4687C13.5932 24.0075 15.7231 21.8364 18.2517 21.8364L18.2531 21.835ZM17.7829 11.8924C17.0101 11.8924 16.3831 11.2585 16.3831 10.4761C16.3831 9.68961 17.0087 9.05024 17.7829 9.05024C18.5529 9.05024 19.1826 9.68961 19.1826 10.4761C19.1826 11.2599 18.5542 11.8924 17.7829 11.8924ZM36.8857 18.5144C36.3509 16.357 35.3279 14.7331 33.1567 14.7331H30.3586V18.0441C30.3586 20.6112 28.182 22.7727 25.7001 22.7727H18.2517C16.2112 22.7727 14.5227 24.519 14.5227 26.5622V33.6627C14.5227 35.684 16.28 36.872 18.2517 37.4522C20.6126 38.1466 22.8759 38.2717 25.7001 37.4522C27.577 36.9091 29.4291 35.8146 29.4291 33.6627V30.8206H21.9807V29.8732H33.1581C35.3251 29.8732 36.1322 28.3621 36.8871 26.092C37.6654 23.7559 37.6324 21.5105 36.8871 18.513L36.8857 18.5144ZM26.1704 32.7167C26.9431 32.7167 27.5701 33.3506 27.5701 34.133C27.5701 34.9195 26.9431 35.5589 26.1704 35.5589C25.4004 35.5589 24.7706 34.9195 24.7706 34.133C24.7706 33.3492 25.399 32.7167 26.1704 32.7167Z" fill="#CF3465"/>
</svg>
