<svg width="44" height="44" viewBox="0 0 44 44" fill="none" xmlns="http://www.w3.org/2000/svg">
<g clip-path="url(#clip0_25_18)">
<path d="M19.4562 43.9221C17.4306 43.5192 15.6818 42.134 14.8316 40.2588C14.4576 39.4339 14.2985 38.6546 14.3012 37.6608C14.3088 34.8047 16.1047 32.4199 18.8948 31.5601C19.4087 31.4017 19.7479 31.3599 20.536 31.3578C21.0823 31.3565 21.6848 31.3852 21.8749 31.4221L22.2204 31.489L22.6456 30.6633C23.514 28.9772 24.8673 27.6525 26.6168 26.7763C28.0601 26.0535 28.967 25.8432 30.6424 25.8432C31.8158 25.8432 32.088 25.8715 32.8451 26.0721C36.1143 26.9384 38.6625 29.5041 39.4645 32.7372C39.6653 33.5467 39.7655 35.3619 39.6487 36.074L39.5689 36.5602L40.0268 36.6627C41.1743 36.9195 42.1646 37.7212 42.6709 38.8032C43.1716 39.8732 43.08 41.2577 42.4414 42.2692C42.1155 42.7854 41.4766 43.3593 40.9434 43.6145C40.6701 43.7453 40.379 43.8878 40.2965 43.9311C40.1112 44.0283 19.9464 44.0196 19.4562 43.9221ZM40.4197 42.7286C40.987 42.4465 41.5481 41.8158 41.7813 41.1981C42.2651 39.9165 41.6197 38.4274 40.3321 37.8545C40.007 37.7098 39.7641 37.6763 39.086 37.6828C38.6228 37.6871 38.2438 37.6579 38.2438 37.6178C38.2438 37.5777 38.3299 37.2017 38.435 36.7823C38.7041 35.7092 38.7014 33.9982 38.4287 32.9532C37.8281 30.6489 36.2707 28.7269 34.1406 27.6611C33.2045 27.1927 32.3142 26.9785 31.0976 26.9289C29.2975 26.8554 28.0407 27.1391 26.6558 27.9315C25.0408 28.8555 23.6487 30.5299 23.1091 32.1973C23.0053 32.518 22.8795 32.7799 22.8294 32.7793C22.7791 32.7787 22.4858 32.695 22.177 32.5934C21.3178 32.3106 19.8526 32.3278 18.9952 32.6307C18.1321 32.9356 17.5108 33.3265 16.8638 33.9714C15.8941 34.9381 15.3555 36.2556 15.3555 37.6608C15.3555 39.7477 16.5051 41.5772 18.3752 42.4667C19.4501 42.978 19.0782 42.9626 29.9943 42.9456L40.0144 42.93L40.4197 42.7286ZM11.5093 38.6896C7.88425 38.1983 5.09402 37.2881 3.03011 35.9235C2.17852 35.3604 1.59056 34.7307 1.25905 34.0265L1.01208 33.5019L1.03471 19.2988L1.05734 5.09569L1.26358 4.70873C1.78491 3.73055 2.80137 2.89587 4.41969 2.11719C6.46595 1.13256 8.82566 0.516996 12.1139 0.109996C13.468 -0.0576066 18.0665 -0.0279714 19.4562 0.157319C24.5737 0.839608 28.545 2.51165 29.8109 4.51696C30.3097 5.30718 30.2969 5.02074 30.2969 15.3459V24.8256L30.0161 24.8691C29.8618 24.893 29.512 24.9364 29.2388 24.9656C26.4207 25.2665 23.4982 27.2148 22.0001 29.7912L21.6933 30.3186L20.4884 30.3755C19.0647 30.4427 18.3393 30.6251 17.2569 31.1879C15.3984 32.1541 14.0701 33.8293 13.5285 35.8901C13.3789 36.4593 13.3346 36.8718 13.3316 37.7256L13.3253 38.827L12.848 38.8168C12.5855 38.8111 11.982 38.7539 11.5069 38.6896H11.5093ZM18.8786 25.5983C18.1986 25.0212 17.6105 24.521 17.5717 24.4869C17.5328 24.4527 17.6743 24.3233 17.8856 24.1994C18.3544 23.9247 18.958 23.2671 19.2144 22.752C19.8408 21.493 19.8268 19.9271 19.1779 18.6811C18.4645 17.3107 16.9715 16.5918 15.2799 16.8042C14.3537 16.9205 13.7735 17.1803 13.1616 17.7527C12.1957 18.6562 11.8612 19.5427 11.912 21.0643C11.9409 21.9293 11.9717 22.0849 12.2191 22.6099C12.7515 23.74 13.8648 24.5847 14.9989 24.719C15.4256 24.7695 15.4626 24.7975 16.3104 25.7092L17.183 26.6475H18.6489H20.1148L18.8786 25.5983ZM15.1795 22.6524C14.5854 22.351 14.3598 21.8346 14.3598 20.7759C14.3598 20.0871 14.3931 19.886 14.5624 19.5415C14.8333 18.9915 15.3733 18.6608 15.9031 18.7205C16.4241 18.7793 16.695 18.99 16.9706 19.5512C17.1798 19.9771 17.21 20.1385 17.2075 20.8168C17.2075 21.6535 17.0565 22.0824 16.6357 22.4738C16.196 22.8828 15.7431 22.9383 15.1795 22.6524ZM9.20218 24.6574C10.7642 24.2971 11.6126 22.9889 11.1628 21.6346C10.9363 20.9527 10.4576 20.5268 9.28849 19.9669C8.74854 19.7083 8.26567 19.4439 8.21545 19.3793C8.01883 19.1267 8.01927 18.9595 8.21545 18.7297C8.51968 18.376 9.21224 18.3591 10.1499 18.6824L10.8653 18.9291L10.8407 17.9745L10.8162 17.0198L10.3412 16.9069C9.62269 16.7361 8.06975 16.7445 7.45877 16.9224C6.23369 17.2792 5.58815 18.0799 5.59217 19.2376C5.59846 20.4289 6.13306 20.9937 8.02323 21.7957C8.8229 22.1351 8.91448 22.7692 8.19967 23.0174C7.86886 23.1323 7.77469 23.1301 7.25122 22.9949C6.93153 22.9124 6.44652 22.729 6.17335 22.5873L5.67665 22.3298V23.3633V24.3967L6.17335 24.535C6.44652 24.611 6.70889 24.6868 6.75641 24.7034C6.95384 24.7721 8.85804 24.7363 9.20023 24.6574H9.20218ZM25.8915 23.7537V22.8467H24.5094H23.1274V19.8666V16.8865H22.0044H20.8815V20.7736V24.6607H23.3865H25.8915V23.7537ZM19.2403 8.20191C21.4928 7.94085 23.3411 7.46869 24.5094 6.85594C25.277 6.45337 25.461 6.30836 25.7561 5.87358C26.6684 4.52911 24.6254 3.17727 20.6655 2.50522C16.9452 1.87382 12.0424 2.01664 8.90443 2.84783C2.42983 4.56289 4.9822 7.71334 13.3495 8.33444C14.7227 8.43638 17.818 8.36676 19.2403 8.20191Z" fill="#CF3465"/>
</g>
<defs>
<clipPath id="clip0_25_18">
<rect width="44" height="44" fill="white"/>
</clipPath>
</defs>
</svg>
