<svg width="205" height="142" viewBox="0 0 205 142" fill="none" xmlns="http://www.w3.org/2000/svg">
<path fill-rule="evenodd" clip-rule="evenodd" d="M102.455 0C73.7286 0 48.5787 17.4735 31.2971 33.6416C22.5176 41.8555 15.4365 50.045 10.5508 56.1752C8.10317 59.2456 6.19421 61.8152 4.88622 63.6339C4.23191 64.5437 3.72713 65.2664 3.37973 65.7712C3.20598 66.0237 3.07147 66.2214 2.97725 66.3613L2.86615 66.5265L2.83343 66.5759L0 71.1388L2.82286 75.4083L2.83343 75.4241L2.86615 75.4735L2.97725 75.6387C3.07147 75.7786 3.20598 75.9763 3.37973 76.2288C3.72713 76.7336 4.23191 77.4563 4.88622 78.3661C6.19421 80.1848 8.10317 82.7544 10.5508 85.8248C15.4365 91.955 22.5176 100.145 31.2971 108.359C48.5787 124.527 73.7286 142 102.455 142C131.18 142 156.329 124.527 173.611 108.359C182.391 100.145 189.472 91.955 194.358 85.8248C196.805 82.7544 198.714 80.1848 200.023 78.3661C200.676 77.4563 201.181 76.7336 201.528 76.2288C201.702 75.9763 201.837 75.7786 201.931 75.6387L202.042 75.4735L202.075 75.4241L202.089 75.4031L205 71L202.085 66.5917L202.075 66.5759L202.042 66.5265L201.931 66.3613C201.837 66.2214 201.702 66.0237 201.528 65.7712C201.181 65.2664 200.676 64.5437 200.023 63.6339C198.714 61.8152 196.805 59.2456 194.358 56.1752C189.472 50.045 182.391 41.8555 173.611 33.6416C156.329 17.4735 131.18 0 102.455 0ZM22.6221 75.8974C21.1375 74.0346 19.8736 72.379 18.8482 71C19.8736 69.621 21.1375 67.9654 22.6221 66.1026C27.168 60.3994 33.7344 52.8114 41.8192 45.2473C58.2661 29.8599 79.7117 15.7778 102.455 15.7778C125.196 15.7778 146.643 29.8599 163.089 45.2473C171.174 52.8114 177.741 60.3994 182.286 66.1026C183.771 67.9654 185.034 69.621 186.06 71C185.034 72.379 183.771 74.0346 182.286 75.8974C177.741 81.6006 171.174 89.1886 163.089 96.7525C146.643 112.14 125.196 126.222 102.455 126.222C79.7117 126.222 58.2661 112.14 41.8192 96.7525C33.7344 89.1886 27.168 81.6006 22.6221 75.8974ZM125.751 71C125.751 84.0703 115.321 94.6667 102.454 94.6667C89.587 94.6667 79.1563 84.0703 79.1563 71C79.1563 57.9297 89.587 47.3333 102.454 47.3333C115.321 47.3333 125.751 57.9297 125.751 71ZM141.283 71C141.283 92.7849 123.899 110.444 102.454 110.444C81.0091 110.444 63.6245 92.7849 63.6245 71C63.6245 49.2154 81.0091 31.5556 102.454 31.5556C123.899 31.5556 141.283 49.2154 141.283 71Z" fill="white"/>
</svg>
