<svg width="44" height="44" viewBox="0 0 44 44" fill="none" xmlns="http://www.w3.org/2000/svg">
<path fill-rule="evenodd" clip-rule="evenodd" d="M23.375 28.183C23.9139 28.6143 24.5119 28.9684 25.1521 29.2335C26.0418 29.602 26.9953 29.7917 27.9584 29.7917C28.9214 29.7917 29.8749 29.602 30.7647 29.2335C31.6544 28.865 32.4629 28.3249 33.1438 27.6438C33.8249 26.9629 34.365 26.1544 34.7335 25.2647C35.102 24.3749 35.2917 23.4214 35.2917 22.4584C35.2917 21.4953 35.102 20.5418 34.7335 19.6521C34.365 18.7624 33.8249 17.9539 33.1438 17.2729C32.8613 16.9903 32.5566 16.732 32.2333 16.5C32.5566 16.2681 32.8613 16.0098 33.1438 15.7272C33.8249 15.0462 34.365 14.2378 34.7335 13.348C35.102 12.4583 35.2917 11.5047 35.2917 10.5417C35.2917 9.57868 35.102 8.62509 34.7335 7.73537C34.365 6.84563 33.8249 6.03723 33.1438 5.35625C32.4629 4.6753 31.6544 4.13512 30.7647 3.76659C29.8749 3.39805 28.9214 3.20837 27.9584 3.20837H16.0417C14.0968 3.20837 12.2315 3.981 10.8563 5.35625C9.481 6.73153 8.70837 8.59678 8.70837 10.5417C8.70837 12.4866 9.481 14.3519 10.8563 15.7272C11.1401 16.0109 11.4447 16.2691 11.7666 16.5C11.4447 16.731 11.1401 16.9891 10.8563 17.2729C9.481 18.6482 8.70837 20.5134 8.70837 22.4584C8.70837 24.4034 9.481 26.2686 10.8563 27.6438C11.1401 27.9276 11.4447 28.1857 11.7666 28.4167C11.4447 28.6477 11.1401 28.9058 10.8563 29.1896C9.481 30.5648 8.70837 32.4301 8.70837 34.375C8.70837 36.32 9.481 38.1853 10.8563 39.5604C12.2315 40.9358 14.0968 41.7084 16.0417 41.7084C17.9866 41.7084 19.8519 40.9358 21.2271 39.5604C22.6025 38.1853 23.375 36.32 23.375 34.375V28.183ZM16.0417 5.95837C14.8261 5.95837 13.6603 6.44126 12.8008 7.3008C11.9413 8.16034 11.4584 9.32613 11.4584 10.5417C11.4584 11.7573 11.9413 12.9231 12.8008 13.7826C13.6603 14.6422 14.8261 15.125 16.0417 15.125H20.625V5.95837H16.0417ZM20.625 29.7917H16.0417C14.8261 29.7917 13.6603 30.2746 12.8008 31.1341C11.9413 31.9937 11.4584 33.1595 11.4584 34.375C11.4584 35.5905 11.9413 36.7564 12.8008 37.616C13.6603 38.4755 14.8261 38.9584 16.0417 38.9584C17.2573 38.9584 18.423 38.4755 19.2827 37.616C20.1421 36.7564 20.625 35.5905 20.625 34.375V29.7917ZM16.0417 17.875C14.8261 17.875 13.6603 18.3579 12.8008 19.2174C11.9413 20.0771 11.4584 21.2429 11.4584 22.4584C11.4584 23.6739 11.9413 24.8397 12.8008 25.6993C13.6603 26.5588 14.8261 27.0417 16.0417 27.0417H20.625V17.875H16.0417ZM23.375 22.4584C23.375 23.0603 23.4937 23.6563 23.7239 24.2123C23.9542 24.7684 24.2919 25.2736 24.7174 25.6993C25.1431 26.1249 25.6484 26.4626 26.2044 26.6928C26.7605 26.9231 27.3565 27.0417 27.9584 27.0417C28.5603 27.0417 29.1563 26.9231 29.7123 26.6928C30.2684 26.4626 30.7736 26.1249 31.1993 25.6993C31.6249 25.2736 31.9626 24.7684 32.1928 24.2123C32.4231 23.6563 32.5417 23.0603 32.5417 22.4584C32.5417 21.8565 32.4231 21.2605 32.1928 20.7044C31.9626 20.1484 31.6249 19.6431 31.1993 19.2174C30.7736 18.7919 30.2684 18.4542 29.7123 18.2239C29.1563 17.9936 28.5603 17.875 27.9584 17.875C27.3565 17.875 26.7605 17.9936 26.2044 18.2239C25.6484 18.4542 25.1431 18.7919 24.7174 19.2174C24.2919 19.6431 23.9542 20.1484 23.7239 20.7044C23.4937 21.2605 23.375 21.8565 23.375 22.4584ZM27.9584 15.125C28.5603 15.125 29.1563 15.0065 29.7123 14.7762C30.2684 14.5458 30.7736 14.2082 31.1993 13.7826C31.6249 13.357 31.9626 12.8517 32.1928 12.2957C32.4231 11.7396 32.5417 11.1436 32.5417 10.5417C32.5417 9.93982 32.4231 9.34383 32.1928 8.78774C31.9626 8.23167 31.6249 7.7264 31.1993 7.3008C30.7736 6.87521 30.2684 6.5376 29.7123 6.30726C29.1563 6.07692 28.5603 5.95837 27.9584 5.95837H23.375V15.125H27.9584Z" fill="white"/>
</svg>
